<?xml version="1.0" encoding="utf-8"?>
<!-- Generator: Adobe Illustrator 27.5.0, SVG Export Plug-In . SVG Version: 6.00 Build 0)  -->
<svg version="1.1" xmlns="http://www.w3.org/2000/svg" xmlns:xlink="http://www.w3.org/1999/xlink" x="0px" y="0px"
	 viewBox="0 0 500 500" style="enable-background:new 0 0 500 500;" xml:space="preserve">
<g id="BACKGROUND">
	<rect style="fill:#FFFFFF;" width="500" height="500"/>
	<circle style="fill:#F9EAF3;" cx="250" cy="250" r="212.79"/>
</g>
<g id="OBJECTS">
	<g>
		<g>
			<path style="fill:#EF8BBD;" d="M241.133,275.819L241.133,275.819c-1.072-7.567-8.075-12.833-15.642-11.761l-18.043,2.555
				l-10.336-5.309l1.981,6.757c-6.13,2.123-10.104,8.345-9.16,15.009l0,0c1.072,7.567,8.075,12.833,15.642,11.762l23.798-3.37
				C236.939,290.389,242.205,283.386,241.133,275.819z"/>
			<g>
				<path style="fill:#FFFFFF;" d="M199.307,281.742c0.31,2.19,2.337,3.715,4.528,3.405c2.19-0.31,3.715-2.337,3.405-4.528
					c-0.31-2.19-2.337-3.715-4.528-3.405C200.521,277.524,198.997,279.551,199.307,281.742z"/>
				<path style="fill:#FFFFFF;" d="M210.845,280.108c0.31,2.19,2.337,3.715,4.528,3.405c2.19-0.31,3.715-2.337,3.405-4.528
					c-0.31-2.19-2.337-3.715-4.528-3.405S210.535,277.917,210.845,280.108z"/>
				<path style="fill:#FFFFFF;" d="M223.826,278.27c0.31,2.191,2.337,3.715,4.528,3.405c2.191-0.31,3.715-2.337,3.405-4.528
					s-2.337-3.715-4.528-3.405C225.04,274.052,223.516,276.079,223.826,278.27z"/>
			</g>
		</g>
		<g>
			<path style="fill:#EF8BBD;" d="M244.594,374.514L244.594,374.514c-0.901-6.36-6.786-10.785-13.146-9.885l-15.164,2.147
				l-8.687-4.462l1.665,5.679c-5.152,1.784-8.492,7.013-7.699,12.614v0c0.901,6.36,6.786,10.785,13.146,9.885l20-2.832
				C241.069,386.759,245.495,380.873,244.594,374.514z"/>
			<g>
				<path style="fill:#FFFFFF;" d="M209.442,379.491c0.261,1.841,1.964,3.122,3.805,2.861c1.841-0.261,3.122-1.964,2.861-3.805
					s-1.964-3.122-3.805-2.861C210.463,375.947,209.181,377.65,209.442,379.491z"/>
				<path style="fill:#FFFFFF;" d="M219.139,378.118c0.261,1.841,1.964,3.122,3.805,2.861c1.841-0.261,3.122-1.965,2.861-3.806
					s-1.964-3.122-3.805-2.861C220.16,374.573,218.879,376.277,219.139,378.118z"/>
				<path style="fill:#FFFFFF;" d="M230.049,376.573c0.261,1.841,1.965,3.122,3.805,2.861c1.841-0.261,3.122-1.964,2.861-3.805
					c-0.261-1.841-1.964-3.122-3.805-2.861C231.069,373.029,229.788,374.732,230.049,376.573z"/>
			</g>
		</g>
		<g>
			<path style="fill:#EF8BBD;" d="M258.867,326.324L258.867,326.324c1.072-7.567,8.075-12.833,15.642-11.762l18.043,2.555
				l10.336-5.309l-1.981,6.757c6.13,2.123,10.104,8.345,9.16,15.009v0c-1.072,7.567-8.075,12.833-15.642,11.761l-23.798-3.37
				C263.061,340.895,257.795,333.892,258.867,326.324z"/>
			<g>
				<path style="fill:#FFFFFF;" d="M300.693,332.247c-0.31,2.191-2.337,3.715-4.528,3.405c-2.191-0.31-3.715-2.337-3.405-4.528
					c0.31-2.191,2.337-3.715,4.528-3.405C299.479,328.029,301.003,330.057,300.693,332.247z"/>
				<path style="fill:#FFFFFF;" d="M289.155,330.613c-0.31,2.19-2.337,3.715-4.528,3.405c-2.191-0.31-3.715-2.337-3.405-4.528
					c0.31-2.191,2.337-3.715,4.528-3.405S289.465,328.423,289.155,330.613z"/>
				<path style="fill:#FFFFFF;" d="M276.174,328.775c-0.31,2.191-2.337,3.715-4.528,3.405c-2.19-0.31-3.715-2.337-3.405-4.528
					c0.31-2.19,2.337-3.715,4.528-3.405C274.96,324.557,276.484,326.585,276.174,328.775z"/>
			</g>
		</g>
	</g>
	<g>
		<path style="fill:#5B3124;" d="M366.337,154.324c2.617-1.417,5.266-2.847,8.143-3.607c2.878-0.76,6.052-0.797,8.724,0.513
			c3.955,1.939,6.008,6.3,7.698,10.367c1.69,4.068,3.563,8.46,7.38,10.657c3.845,2.213,8.654,1.598,12.969,0.57
			c1.482-0.353,3.006-0.75,4.51-0.509c1.504,0.241,2.996,1.316,3.185,2.827c0.188,1.512-1.532,3.063-2.877,2.348
			c3.533-0.891,7.229,1.788,8.551,5.184c1.322,3.396,0.781,7.23-0.224,10.733c-1.718,5.987-4.817,11.68-9.473,15.818
			c-4.655,4.138-10.955,6.593-17.151,5.95c-6.195-0.644-12.105-4.644-14.368-10.448c-2.063-5.291-1.035-11.272-2.194-16.83
			C378.854,176.589,367.81,168.274,366.337,154.324z"/>
		<path style="opacity:0.1;fill:#912C5A;" d="M487.281,451.564c0,3.808-35.032,6.896-78.246,6.896
			c-43.214,0-78.245-3.087-78.245-6.896c0-3.808,35.032-6.896,78.245-6.896C452.249,444.668,487.281,447.756,487.281,451.564z"/>
		<path style="fill:#C1715B;" d="M438.557,154.641c0,0-1.491-8.696-1.207-11.597c0.25-2.557,3.795-8.598,4.767-7.604
			c0.515,0.527-0.596,4.178-0.596,4.178s1.53-0.976,2.718-2.778c1.216-1.844,1.238-6.022,1.617-6.533
			c0.722-0.975,6.019,4.794,3.143,10.897c-0.769,1.632-4.767,5.542-4.767,5.542l1.073,8.237L438.557,154.641z"/>
		<path style="fill:#C1715B;" d="M364.937,295.528c0,0-19.597,31.452-16.144,41.804c9.733,29.184,107.258,79.804,107.258,79.804
			l5.356-6.799l-86.092-79.022l14.818-28.6L364.937,295.528z"/>
		<path style="opacity:0.2;" d="M378.517,369.177l7.48-28.057l-5.72-5.25c-1.599,4.235-6.682,18.47-7.049,29.175
			C374.941,366.422,376.707,367.801,378.517,369.177z"/>
		<path style="opacity:0.2;" d="M398.144,352.27l-7.126,25.941c2.694,1.86,5.424,3.699,8.166,5.506
			c0.418-7.388,3.664-19.141,5.546-25.402L398.144,352.27z"/>
		<path style="fill:#C1715B;" d="M422.88,303.415c0,0-11.952,26.403-19.391,45.645c-1.193,3.076-2.27,5.969-3.164,8.544
			c-0.786,2.276-1.43,4.302-1.89,5.983c-0.969,3.564-1.992,8.51-3.015,14.235c-0.495,2.751-0.989,5.678-1.477,8.713
			c-4.228,26.322-8.096,61.099-8.096,61.099l-8.476,0.115c0,0-2.29-52.217-1.24-76.912v-0.007c0.102-2.493,0.244-4.709,0.42-6.558
			c0.027-0.264,0.054-0.542,0.088-0.827c0.623-5.705,2.297-14.709,4.234-24.154c0.413-2.039,0.847-4.099,1.281-6.152
			c3.564-16.762,7.453-32.975,7.453-32.975L422.88,303.415z"/>
		<path style="opacity:0.2;" d="M355.444,312.811c6.121,1.001,16.302,2.487,27.678,3.436l5.879-11.347l-28.724-1.361
			C358.775,306.25,357.079,309.444,355.444,312.811z"/>
		<path style="opacity:0.2;" d="M388.492,304.875c-0.677,2.89-1.613,6.923-2.669,11.585c10.319,0.767,21.402,1.031,31.238,0.07
			c1.85-4.23,3.419-7.76,4.46-10.09L388.492,304.875z"/>
		<path style="fill:#C1715B;" d="M302.457,209.472c0,0-6.122-6.353-8.628-7.843c-2.208-1.314-9.175-2.037-8.95-0.665
			c0.119,0.727,3.719,1.995,3.719,1.995s-1.693,0.654-3.849,0.544c-2.206-0.113-5.585-2.57-6.22-2.568
			c-1.213,0.004,0.296,7.689,6.916,8.989c1.77,0.347,7.289-0.556,7.289-0.556l6,5.745L302.457,209.472z"/>
		<path style="fill:#F4B12A;" d="M441.376,310.475c-19.818,5.583-82.346,3.001-105.422-6.585
			c4.024-13.645,9.038-20.197,17.311-27.711c7.737-7.019,15.996-14.797,18.3-24.818c0.068-0.298,0.129-0.596,0.183-0.894
			c0.081-0.406,0.149-0.82,0.21-1.233c5.854-2.737,28.863-13.164,36.058-15.19c0.488,0.183,0.969,0.379,1.436,0.596
			c0.434,0.197,0.86,0.407,1.28,0.637c7.907,4.275,12.677,13.368,14.526,22.331c2.073,9.939,2.758,18.91,4.099,28.998
			C430.691,296.667,432.27,305.624,441.376,310.475z"/>
		<g>
			
				<path style="fill:none;stroke:#C69B22;stroke-width:1.0906;stroke-linecap:round;stroke-linejoin:round;stroke-miterlimit:10;" d="
				M372.865,267.494c3.935-5.64,6.003-12.559,6.741-18.628c0.192,3.371,0.383,6.742,0.575,10.112"/>
			
				<path style="fill:none;stroke:#C69B22;stroke-width:1.0906;stroke-linecap:round;stroke-linejoin:round;stroke-miterlimit:10;" d="
				M395.373,243.796c0.974,8.81,1.229,17.699,0.763,26.55"/>
			
				<path style="fill:none;stroke:#C69B22;stroke-width:1.0906;stroke-linecap:round;stroke-linejoin:round;stroke-miterlimit:10;" d="
				M399.983,240.191c3.409,8.12,5.813,16.661,7.139,25.367"/>
			
				<path style="fill:none;stroke:#C69B22;stroke-width:1.0906;stroke-linecap:round;stroke-linejoin:round;stroke-miterlimit:10;" d="
				M397.201,241.054c2.111,4.344,3.188,9.187,3.115,14.016"/>
		</g>
		<path style="opacity:0.2;" d="M410.731,235.277c-1.158,2.303-4.133,6.931-10.644,10.745c-9.106,5.332-23.537,5.468-28.524,5.339
			c0.068-0.298,0.129-0.596,0.183-0.894l37.704-15.827C409.885,234.836,410.311,235.046,410.731,235.277z"/>
		<g>
			<path style="fill:#343956;" d="M441.518,208.622l-33.883-5.773l2.622,32.338c0,0-7.819,7.012-16.979,11.064
				c-8.747,3.869-20.441,4.539-21.525,4.594c-0.02,0.007-0.04,0.007-0.054,0.007c-0.02,0-0.027,0-0.027,0l-0.115-0.305
				l-10.61-27.731l-0.074-0.196l-15.475,22.06c-4.939,7.06-15.143,7.656-20.895,1.213l-28.659-32.169l5.603-6.057l32.047,26.518
				l15.217-26.207c3.53-6.077,8.801-10.942,15.095-13.923c1.335-0.623,2.69-1.172,4.099-1.646l24.133-7.968l0.786-0.257
				c5.603-1.836,11.565-2.222,17.338-1.145l29.377,7.344l-3.123-35.936l10.922-0.027l7.534,40.658
				C456.329,202.998,449.459,209.957,441.518,208.622z"/>
		</g>
		<path d="M364.53,452.378l21.97-2.491l-0.118-2.807c-0.086,0.006-0.171,0.03-0.255,0.053c-2.897,0.781-5.668,0.75-8.562-0.076
			l-0.067,0.022l-13.082,3.959C363.614,451.184,363.701,452.387,364.53,452.378z"/>
		<path d="M448.64,429.062l14.249-17.369l-2.044-1.928c-0.057,0.064-0.101,0.14-0.146,0.216c-1.529,2.582-3.791,4.743-6.439,6.172
			l-0.033,0.063l-6.604,11.967C447.15,428.846,448.053,429.647,448.64,429.062z"/>
		<path style="fill:none;stroke:#110F29;stroke-width:0.818;stroke-linecap:round;stroke-linejoin:round;stroke-miterlimit:10;" d="
			M439.5,207.928c-8.123-1.346-30.398-4.973-33.363-5.565"/>
		<polygon style="opacity:0.2;" points="371.835,251.09 371.699,250.805 371.557,250.501 360.947,222.77 363.217,219.802 
			371.754,250.799 		"/>
		
			<line style="fill:none;stroke:#110F29;stroke-width:0.818;stroke-linecap:round;stroke-linejoin:round;stroke-miterlimit:10;" x1="363.091" y1="219.661" x2="358.722" y2="226.074"/>
		
			<path style="fill:none;stroke:#110F29;stroke-width:1.0906;stroke-linecap:round;stroke-linejoin:round;stroke-miterlimit:10;" d="
			M376.546,230.58c6.219-0.575,12.329-2.314,17.92-5.099"/>
		
			<path style="fill:none;stroke:#110F29;stroke-width:1.0906;stroke-linecap:round;stroke-linejoin:round;stroke-miterlimit:10;" d="
			M382.837,232.401c1.506-0.457,3.012-0.915,4.519-1.372"/>
		<path style="fill:none;stroke:#9E4D3F;stroke-width:0.818;stroke-linecap:round;stroke-linejoin:round;stroke-miterlimit:10;" d="
			M289.137,203.628c-0.269,1.132,1.131,2.691,2.288,3.528"/>
		<path style="fill:none;stroke:#9E4D3F;stroke-width:0.818;stroke-linecap:round;stroke-linejoin:round;stroke-miterlimit:10;" d="
			M441.933,140.069c1.649,1.667,1.324,4.464,0.891,5.076"/>
		<g>
			<path style="fill:#C1715B;" d="M394.304,191.455l-2.265-7.059l-8.415,2.777l-2.034-13.429l-10.992,7.136l1.152,1.763l0.066,0.379
				l0.559,3.697l0.243,1.588l0.356,2.381l-5.068,1.673c-1.407,0.477-2.766,1.025-4.102,1.645l2.122,6.558
				c1.359,4.245,5.89,6.581,10.111,5.222l13.068-4.197C393.326,200.231,395.663,195.7,394.304,191.455z"/>
			<path style="opacity:0.5;fill:#C1715B;" d="M381.699,177.034c0,0,0.218,4.549-3.607,7.43c-1.865,1.426-4.077,2.105-5.717,2.255
				l-0.559-3.697l0.086-0.195L381.699,177.034z"/>
		</g>
		<path style="fill:#C1715B;" d="M385.269,169.275c0.512-7.971-4.565-14.786-11.34-15.221c-6.775-0.436-10.927,4.602-10.322,12.624
			c0.6,7.965-2.142,16.467,7.04,17.234C377.412,184.477,384.757,177.246,385.269,169.275z"/>
		<path d="M376.066,169.03c0.029-0.74-0.308-1.354-0.752-1.371c-0.444-0.017-0.827,0.569-0.856,1.309
			c-0.029,0.74,0.308,1.354,0.752,1.371C375.654,170.356,376.037,169.77,376.066,169.03z"/>
		<path d="M367.134,169.458c0.029-0.74-0.308-1.354-0.752-1.371c-0.444-0.017-0.827,0.569-0.856,1.309
			c-0.029,0.74,0.308,1.354,0.752,1.371C366.722,170.784,367.105,170.198,367.134,169.458z"/>
		
			<path style="fill:none;stroke:#5B3124;stroke-width:1.0906;stroke-linecap:round;stroke-linejoin:round;stroke-miterlimit:10;" d="
			M368.07,164.524c-2.185-0.232-3.643,1.026-4.028,2.391"/>
		<path style="fill:none;stroke:#9E4D3F;stroke-width:0.818;stroke-linecap:round;stroke-linejoin:round;stroke-miterlimit:10;" d="
			M369.111,167.77c0.678,1.976,0.804,4.139,0.361,6.18c-0.069,0.32-0.153,0.648-0.096,0.97c0.057,0.322,0.3,0.639,0.627,0.659
			c0.262,0.016,0.497-0.156,0.684-0.341c0.602-0.596,0.967-1.424,1.002-2.271"/>
		<path style="fill:none;stroke:#9E4D3F;stroke-width:0.818;stroke-linecap:round;stroke-linejoin:round;stroke-miterlimit:10;" d="
			M374.555,175.687c-0.731,0.194-1.412,0.571-1.964,1.087c-0.171,0.16-0.341,0.395-0.243,0.607c0.115,0.248,0.473,0.223,0.735,0.147
			c0.545-0.158,1.077-0.363,1.587-0.613c0.214-0.105,0.429-0.222,0.58-0.405c0.151-0.184,0.223-0.451,0.119-0.665
			C375.264,175.632,374.964,175.579,374.555,175.687z"/>
		<path style="fill:#5B3124;" d="M372.296,152.652c-2.426,0.39-4.853,0.781-7.279,1.171c-0.836,0.135-1.745,0.308-2.3,0.948
			c-0.42,0.484-0.556,1.198-0.343,1.802c0.213,0.605,0.767,1.076,1.398,1.189c-0.813,0.133-1.665,0.283-2.31,0.796
			c-0.645,0.513-0.98,1.516-0.494,2.181c0.578,0.792,1.787,0.611,2.731,0.348c3.521-0.984,7.126-2.007,10.086-4.153
			c0.648-0.47,1.276-1.01,1.643-1.722c0.367-0.712,0.424-1.63-0.038-2.284C374.926,152.275,373.963,152.384,372.296,152.652z"/>
		<path style="fill:#5B3124;" d="M373.145,154.188c-0.448,5.11,4.573,11.021,8.557,13.583c0.815-1.901,2.169-2.618,4.523-2.537
			c0.88-3.145-0.09-6.736-2.433-9.01C381.448,153.949,377.16,151.566,373.145,154.188z"/>
		
			<path style="fill:none;stroke:#5B3124;stroke-width:1.0906;stroke-linecap:round;stroke-linejoin:round;stroke-miterlimit:10;" d="
			M372.499,164.159c1.786-1.131,4.063-0.189,4.912,1.411"/>
		<g>
			<path style="fill:#C1715B;" d="M387.414,169.956c0.287-2.388-0.986-4.506-2.843-4.729c-1.858-0.224-3.116,1.589-3.403,3.978
				c-0.287,2.388-0.125,5.136,1.286,5.517C384.113,175.17,387.126,172.345,387.414,169.956z"/>
			
				<path style="fill:none;stroke:#9E4D3F;stroke-width:0.818;stroke-linecap:round;stroke-linejoin:round;stroke-miterlimit:10;" d="
				M385.255,167.531c0.03-0.298-0.217-0.577-0.508-0.645c-0.291-0.067-0.602,0.045-0.834,0.234s-0.395,0.448-0.539,0.71
				c-0.613,1.117-0.933,2.373-1.114,3.633"/>
		</g>
	</g>
	<g>
		<ellipse style="opacity:0.1;fill:#912C5A;" cx="127.016" cy="422.115" rx="83.499" ry="6.898"/>
		<polygon style="fill:#C1715B;" points="105.791,159.53 91.19,160.392 89.999,140.382 104.608,139.513 105.065,147.259 
			105.409,153.065 		"/>
		<rect x="78.821" y="399.29" style="fill:#C1715B;" width="11.379" height="16.798"/>
		<polygon style="fill:#C1715B;" points="143.911,416.52 142.525,399.78 153.866,398.84 155.252,417.207 		"/>
		<path style="fill:#343956;" d="M133.356,237.265c0,0,14.14,65.407,17.476,89.059c2.528,17.923,6.191,77.204,6.191,77.204
			l-16.28,1.717c0,0-6.252-55.227-10.745-73.159c-4.328-17.274-24.1-67.03-24.1-67.03l-13.02,138.815l-16.606-1.717l-2.386-158.867
			L133.356,237.265z"/>
		
			<path style="fill:none;stroke:#000000;stroke-width:1.0906;stroke-linecap:round;stroke-linejoin:round;stroke-miterlimit:10;" d="
			M109.572,242.004c0.203,5.171,0.406,10.342,0.609,15.513"/>
		
			<line style="fill:none;stroke:#000000;stroke-width:1.0906;stroke-linecap:round;stroke-linejoin:round;stroke-miterlimit:10;" x1="80.066" y1="246.677" x2="79.043" y2="401.347"/>
		<path style="fill:#85B238;" d="M136.021,243.686l-63.074,4.378l-9.45-68.254c-1.431-10.339,7.174-20.179,17.578-20.916
			l5.982-0.368l3.295-0.195l19.898-1.171l1.517-0.087l2.016-0.13c10.144-0.715,18.879,7.088,19.312,17.253L136.021,243.686z"/>
		<path style="fill:#85B238;" d="M113.873,157.331l45.904-12.688l-36.634-20.583l1.821-13.547c0,0,57.074,22.261,56.801,35.272
			c-0.273,13.01-52.774,26.875-52.774,26.875L113.873,157.331z"/>
		<path style="opacity:0.5;fill:#C1715B;" d="M105.409,153.065c-1.131,0.854-2.779,1.319-5.206,0.862
			c-6.285-1.199-7.739-9.754-7.739-9.754l12.601,3.087L105.409,153.065z"/>
		<path style="fill:#C1715B;" d="M62.64,271.113c0,0,2.333,9.833,5.726,13.705c0.842,0.961,1.687,0.722,1.958-0.128
			c0.552,1.237,1.67,1.259,2.202,0.639c0.366,0.824,1.861,1.287,2.069,0.076c-2.095-4.135-2.822-8.227-3.192-11.403
			c0.615,1.154,2.502,3.426,2.952,2.762c0.592-0.875-1.793-7.274-4.35-9.944C68.022,268.297,62.64,271.113,62.64,271.113z"/>
		<path style="fill:#85B238;" d="M81.303,158.861l-1.387,0.155c-10.719,1.201-19.46,9.138-21.687,19.692
			c0,0-11.161,30.937-11.118,41.734c0.054,13.346,14.159,51.471,14.159,51.471l12.29-3.516l-8.826-49.018L81.303,158.861z"/>
		<g>
			<path style="fill:#3F2A23;" d="M113.505,114.16c-0.737-1.342-2.351-2.031-3.882-2.013c-1.531,0.018-2.993,0.634-4.336,1.372
				c-0.389,0.214-0.751,0.449-1.124,0.678c0.182-0.467,0.206-0.993-0.032-1.425c-0.335-0.606-1.099-0.867-1.788-0.807
				c-0.689,0.06-1.325,0.381-1.942,0.695c-2.952,1.506-5.904,3.012-8.856,4.518c-2.549,1.3-5.228,2.719-6.707,5.168
				c-1.162,1.924-1.425,4.367-0.698,6.494c0.727,2.127,2.29,4.49,4.527,4.708c4.855,0.473,18.273-2.362,23.208-6.374
				c0.936-0.761,1.439-2.042,1.338-3.243c-0.101-1.202-1.05-2.361-2.253-2.438c0.939-1.021,1.894-2.064,2.475-3.323
				C114.015,116.91,114.173,115.376,113.505,114.16z"/>
		</g>
		<path style="fill:#C1715B;" d="M88.233,135.639c-0.902-8.019,3.892-15.142,10.708-15.909c6.816-0.767,11.249,4.116,11.027,12.24
			c-0.22,8.067,2.958,16.514-6.271,17.732C96.897,150.6,89.136,143.658,88.233,135.639z"/>
		<path style="fill:#3F2A23;" d="M93.288,120.81c1.559,2.098,1.52,5.102,0.352,7.44c-1.169,2.338-3.305,4.071-5.623,5.277
			C86.754,129.189,88.161,124.189,93.288,120.81z"/>
		<path style="fill:#3F2A23;" d="M91.979,120.647c0.6,1.322,1.911,2.163,3.208,2.816c1.969,0.991,4.124,1.735,6.328,1.678
			c2.204-0.057,4.465-1.018,5.689-2.852c0.565-0.848,0.879-1.996,0.361-2.874c-0.332-0.564-0.943-0.904-1.555-1.134
			c-2.23-0.84-4.729-0.544-7.03,0.074C96.678,118.973,94.458,119.901,91.979,120.647z"/>
		<path style="fill:#C1715B;" d="M86.101,136.43c-0.406-2.396,0.777-4.595,2.641-4.91c1.864-0.315,3.222,1.453,3.627,3.85
			c0.405,2.396,0.375,5.177-1.031,5.63C89.684,141.532,86.507,138.827,86.101,136.43z"/>
		<g>
			<path style="fill:#965344;" d="M106.803,112.222c0,0,0.803,1.155,3.417,0.461c0,0,0.705,0.759,1.981,0.367l7.127,4.125
				l-7.365-6.578L106.803,112.222z"/>
			<path style="fill:#C1715B;" d="M125.502,113.836l-11.819-4.924c-0.839-0.35-1.782-0.356-2.626-0.019l-6.389,2.556
				c0,0,1.354,1.063,3.017,0.929c1.334-0.108,3.803-1.181,3.803-1.181s5.896,4.966,8.073,6.274c1.276,0.767,5.269,2.468,5.269,2.468
				L125.502,113.836z"/>
			<path style="fill:#C1715B;" d="M118.668,114.621c0,0-8.832-0.998-8.882,0.176c-0.05,1.174,11.022,2.671,11.022,2.671
				L118.668,114.621z"/>
		</g>
		<path style="fill:#C1715B;" d="M172.218,422.048l-28.242-1.084l-0.108-3.533l-0.108-3.49l11.618,2.623l0.087,0.022l16.776,3.771
			C173.258,420.466,173.258,421.983,172.218,422.048z"/>
		<path style="fill:#C1715B;" d="M90.2,413.075v6.806l-28.351,1.517c-1.019-0.065-1.04-1.582,0-1.69l16.972-3.967l0.108-0.022
			L90.2,413.075z"/>
		<path d="M90.2,415.568v4.313l-28.351,1.517c-1.019-0.065-1.04-1.582,0-1.69l16.972-3.967c0,0,1.618,1.039,2.449,1.236
			c2.666,0.629,5.57,0.282,7.998-0.889C89.593,415.936,89.897,415.763,90.2,415.568z"/>
		<path d="M172.218,422.048l-28.242-1.084l-0.108-3.533c0.108,0,0.217,0.022,0.325,0.043c3.706,0.715,7.629,0.39,11.184-0.91
			l0.087,0.022l16.776,3.771C173.258,420.466,173.258,421.983,172.218,422.048z"/>
		<path style="fill:#C1715B;" d="M110.358,158.482c0,5.549-5.224,10.035-11.661,10.035c-6.394,0-11.618-4.465-11.639-9.992
			l3.295-0.195l19.898-1.171C110.336,157.593,110.358,158.027,110.358,158.482z"/>
		<path d="M96.911,134.991c-0.105-0.741,0.17-1.392,0.615-1.455c0.445-0.063,0.89,0.486,0.995,1.227
			c0.105,0.741-0.17,1.392-0.615,1.455C97.462,136.281,97.016,135.732,96.911,134.991z"/>
		<path d="M106.123,133.582c-0.105-0.741,0.17-1.392,0.615-1.455c0.444-0.063,0.89,0.486,0.995,1.227
			c0.105,0.741-0.17,1.392-0.615,1.455C106.674,134.872,106.228,134.323,106.123,133.582z"/>
		
			<path style="fill:none;stroke:#9E4D3F;stroke-width:1.0906;stroke-linecap:round;stroke-linejoin:round;stroke-miterlimit:10;" d="
			M103.637,132.617c-0.408,0.688-0.832,1.445-0.723,2.237c0.067,0.487,0.329,0.921,0.572,1.348c0.752,1.32,1.384,2.751,1.491,4.267
			c0.022,0.307,0.021,0.623-0.074,0.916c-0.095,0.293-0.298,0.564-0.584,0.679c-0.456,0.184-0.973-0.067-1.349-0.384
			c-0.376-0.317-0.704-0.714-1.16-0.899"/>
		
			<path style="fill:none;stroke:#9E4D3F;stroke-width:1.0906;stroke-linecap:round;stroke-linejoin:round;stroke-miterlimit:10;" d="
			M88.163,133.878c-0.044-0.299,0.191-0.593,0.482-0.675c0.291-0.082,0.61,0.016,0.853,0.196c0.243,0.18,0.42,0.433,0.578,0.69
			c0.672,1.097,1.056,2.349,1.3,3.613"/>
		<path style="fill:none;stroke:#30211B;stroke-width:0.818;stroke-linecap:round;stroke-linejoin:round;stroke-miterlimit:10;" d="
			M107.823,116.168c0.766,1.303,0.689,2.985,0.069,4.364s-1.722,2.489-2.926,3.403"/>
		<path style="fill:none;stroke:#30211B;stroke-width:0.818;stroke-linecap:round;stroke-linejoin:round;stroke-miterlimit:10;" d="
			M86.625,122.694c-1.182,1.795-1.225,4.274-0.107,6.109"/>
		<path style="fill:none;stroke:#30211B;stroke-width:0.818;stroke-linecap:round;stroke-linejoin:round;stroke-miterlimit:10;" d="
			M87.485,125.052c-0.038,1.107,0.04,2.218,0.231,3.31"/>
		
			<path style="fill:none;stroke:#9E4D3F;stroke-width:1.0906;stroke-linecap:round;stroke-linejoin:round;stroke-miterlimit:10;" d="
			M97.618,142.586c1.621,0.233,3.132,0.847,4.26,1.731"/>
		
			<path style="fill:none;stroke:#30211B;stroke-width:1.6359;stroke-linecap:round;stroke-linejoin:round;stroke-miterlimit:10;" d="
			M100.024,130.292c-0.925-0.549-2.265-0.456-3.23,0.044c-0.965,0.501-1.6,1.336-2.014,2.205"/>
		
			<path style="fill:none;stroke:#30211B;stroke-width:1.6359;stroke-linecap:round;stroke-linejoin:round;stroke-miterlimit:10;" d="
			M104.649,129.499c1.274,0.779,3.032,0.992,4.463,0.54"/>
		
			<line style="fill:none;stroke:#548435;stroke-width:1.0906;stroke-linecap:round;stroke-linejoin:round;stroke-miterlimit:10;" x1="156.164" y1="145.781" x2="164.253" y2="143.688"/>
		
			<line style="fill:none;stroke:#548435;stroke-width:1.0906;stroke-linecap:round;stroke-linejoin:round;stroke-miterlimit:10;" x1="163.535" y1="141.898" x2="159.367" y2="144.781"/>
		
			<path style="fill:none;stroke:#548435;stroke-width:1.0906;stroke-linecap:round;stroke-linejoin:round;stroke-miterlimit:10;" d="
			M127.876,196.795c-3.559,5.37-7.857,10.25-12.736,14.459"/>
		
			<path style="fill:none;stroke:#548435;stroke-width:1.0906;stroke-linecap:round;stroke-linejoin:round;stroke-miterlimit:10;" d="
			M125.768,206.138c-1.881,2.351-4.023,4.493-6.374,6.374"/>
		
			<path style="fill:none;stroke:#548435;stroke-width:1.0906;stroke-linecap:round;stroke-linejoin:round;stroke-miterlimit:10;" d="
			M79.086,196.952c2.583,2.818,5.519,5.312,8.718,7.405"/>
		
			<path style="fill:none;stroke:#000000;stroke-width:1.0906;stroke-linecap:round;stroke-linejoin:round;stroke-miterlimit:10;" d="
			M103.31,266.025c2.911-0.246,5.589-2.313,6.567-5.066"/>
		
			<path style="fill:none;stroke:#000000;stroke-width:1.0906;stroke-linecap:round;stroke-linejoin:round;stroke-miterlimit:10;" d="
			M107.947,263.655c0,0,22.711,51.094,27.095,67.323c5.294,19.596,9.102,72.79,9.102,72.79"/>
		<polygon style="opacity:0.1;" points="74.594,185.489 76.623,247.809 72.947,248.064 67.625,209.326 		"/>
		
			<path style="fill:none;stroke:#548435;stroke-width:1.0906;stroke-linecap:round;stroke-linejoin:round;stroke-miterlimit:10;" d="
			M77.057,186.462c-1.533,3.019-3.256,5.942-5.155,8.745"/>
		
			<line style="fill:none;stroke:#548435;stroke-width:1.0906;stroke-linecap:round;stroke-linejoin:round;stroke-miterlimit:10;" x1="74.929" y1="184.316" x2="65.025" y2="219.018"/>
	</g>
</g>
</svg>
