<?xml version="1.0" standalone="no"?>
<!DOCTYPE svg PUBLIC "-//W3C//DTD SVG 20010904//EN"
 "http://www.w3.org/TR/2001/REC-SVG-20010904/DTD/svg10.dtd">
<svg version="1.0" xmlns="http://www.w3.org/2000/svg"
 width="256.000000pt" height="232.000000pt" viewBox="0 0 256.000000 232.000000"
 preserveAspectRatio="xMidYMid meet">

<g transform="translate(0.000000,232.000000) scale(0.100000,-0.100000)"
fill="#000000" stroke="none">
<path d="M1155 2225 c-120 -17 -174 -31 -275 -74 -250 -107 -444 -305 -560
-570 -26 -61 -36 -104 -52 -230 -18 -148 -18 -163 -3 -311 24 -235 77 -371
207 -537 124 -157 331 -295 538 -359 25 -7 90 -18 145 -24 55 -6 114 -15 130
-20 52 -16 300 26 329 56 8 8 20 14 26 14 6 0 49 18 95 40 46 22 89 40 94 40
6 0 11 5 11 10 0 6 7 10 17 10 9 0 40 19 70 41 58 45 214 206 211 217 -2 4 24
56 56 116 51 94 106 228 106 258 0 5 -5 8 -11 6 -6 -2 -21 -33 -34 -69 -86
-248 -225 -423 -435 -551 -50 -31 -26 -9 50 44 99 69 251 236 196 215 -11 -5
-6 9 16 40 69 98 110 186 144 301 26 93 51 300 39 329 -5 10 -9 54 -11 98 -4
147 -71 321 -186 478 -154 213 -436 374 -688 395 l-75 7 80 6 c110 9 214 -16
346 -81 77 -38 193 -111 204 -129 3 -6 20 -20 38 -31 28 -19 27 -17 -8 15
-144 133 -372 236 -555 250 -41 3 -95 7 -120 9 -25 2 -85 -2 -135 -9z m190
-404 c8 -36 43 -48 84 -27 27 14 29 14 56 -14 25 -27 27 -32 16 -59 -17 -40
-7 -67 29 -75 28 -5 30 -9 30 -51 0 -35 -4 -47 -17 -51 -53 -16 -66 -46 -39
-87 15 -22 14 -25 -14 -52 -27 -26 -31 -27 -59 -15 -36 15 -81 6 -81 -16 0 -8
-5 -12 -11 -9 -6 4 -8 14 -4 23 3 8 0 19 -6 23 -7 4 2 11 23 18 65 22 118 95
118 165 0 69 -55 147 -115 162 -19 5 -24 13 -27 50 -4 50 7 59 17 15z m-115
-181 c0 -5 -5 -10 -11 -10 -5 0 -7 5 -4 10 3 6 8 10 11 10 2 0 4 -4 4 -10z
m77 -12 c-3 -8 -6 -5 -6 6 -1 11 2 17 5 13 3 -3 4 -12 1 -19z m101 -54 c-14
-14 -15 -14 -10 11 3 19 8 23 15 16 8 -8 7 -16 -5 -27z m-178 -36 c0 -6 -6 -5
-15 2 -8 7 -15 14 -15 16 0 2 7 1 15 -2 8 -4 15 -11 15 -16z m110 -198 c0 -5
-5 -10 -11 -10 -5 0 -7 5 -4 10 3 6 8 10 11 10 2 0 4 -4 4 -10z m547 -180 c42
-18 90 -78 75 -91 -4 -3 -27 -11 -51 -17 -39 -9 -44 -9 -48 8 -7 27 -58 46
-88 32 -34 -16 -32 -48 5 -67 16 -8 34 -15 40 -15 6 0 36 -12 66 -26 65 -31
89 -68 81 -126 -10 -73 -66 -110 -163 -110 -85 1 -150 38 -168 98 -6 19 -1 23
38 33 58 14 66 14 66 -2 0 -43 90 -62 114 -24 17 27 -4 49 -76 77 -88 34 -116
55 -126 93 -31 115 107 195 235 137z m-330 -33 c19 -21 33 -43 30 -50 -2 -6
-20 -15 -39 -20 -31 -7 -39 -5 -63 18 -23 24 -32 27 -68 22 -38 -5 -40 -4 -23
9 12 8 14 14 7 14 -8 0 -11 6 -7 16 5 13 2 15 -14 11 -11 -3 -23 0 -27 5 -3 7
-1 8 5 4 7 -4 12 -2 12 5 0 8 23 10 76 7 73 -3 77 -5 111 -41z m-190 -69 c-3
-8 -6 -5 -6 6 -1 11 2 17 5 13 3 -3 4 -12 1 -19z m135 -72 c26 -10 57 -29 68
-43 24 -31 27 -103 4 -138 -20 -30 -82 -55 -139 -55 l-45 0 2 39 c1 38 3 40
28 34 41 -8 72 13 68 45 -2 21 -14 33 -54 53 -33 17 -49 30 -45 40 3 12 1 12
-14 -1 -17 -13 -18 -13 -10 0 5 8 18 21 28 29 20 14 20 14 -1 22 -12 5 -22 13
-22 18 0 5 19 2 43 -8 23 -10 63 -26 89 -35z m-142 -106 c0 -5 -2 -10 -4 -10
-3 0 -8 5 -11 10 -3 6 -1 10 4 10 6 0 11 -4 11 -10z m20 -90 c0 -5 -5 -10 -11
-10 -5 0 -7 5 -4 10 3 6 8 10 11 10 2 0 4 -4 4 -10z m61 -200 c13 -7 19 -21
19 -43 0 -40 -16 -57 -49 -56 -23 2 -23 2 -4 6 45 9 58 64 21 87 -27 16 -53
-5 -53 -42 0 -16 -3 -28 -7 -25 -14 8 -9 46 9 65 18 20 36 23 64 8z m144 -25
c0 -25 -5 -31 -29 -35 -17 -3 -32 -14 -37 -25 -5 -13 -8 -1 -8 38 l-1 58 38
-3 c34 -3 37 -6 37 -33z m100 26 c-37 -8 -40 -34 -5 -40 l25 -4 -24 -6 c-37
-10 -36 -29 1 -40 l33 -9 -42 -1 -43 -1 0 55 0 55 43 -1 c38 -1 39 -2 12 -8z
m143 -20 c2 -13 -1 -28 -7 -34 -7 -7 -7 -16 0 -29 6 -12 6 -18 0 -18 -6 0 -15
9 -21 20 -14 26 -29 25 -40 -2 -7 -18 -9 -10 -9 35 l-1 58 38 -3 c30 -2 38 -7
40 -27z"/>
<path d="M1523 574 c-8 -21 8 -34 35 -28 25 7 29 29 6 38 -25 9 -34 7 -41 -10z"/>
<path d="M1767 574 c-10 -11 3 -24 24 -24 10 0 19 7 19 15 0 15 -31 21 -43 9z"/>
<path d="M2310 1326 c0 -8 5 -18 10 -21 6 -3 10 3 10 14 0 12 -4 21 -10 21 -5
0 -10 -6 -10 -14z"/>
</g>
</svg>
